<svg xmlns="http://www.w3.org/2000/svg" xmlns:xlink="http://www.w3.org/1999/xlink" version="1.1" x="0px" y="0px" viewBox="0 0 100 125" enable-background="new 0 0 100 100" xml:space="preserve"><path d="M60.592,42.87c0-1.909-1.553-3.462-3.462-3.462h-0.011v-4.033c0-1.104-0.896-2-2-2s-2,0.896-2,2v4.033H52v-4.033  c0-1.104-0.896-2-2-2s-2,0.896-2,2v4.033h-1.119v-4.033c0-1.104-0.896-2-2-2s-2,0.896-2,2v4.033H42.87  c-1.909,0-3.462,1.553-3.462,3.462v0.011h-4.033c-1.104,0-2,0.896-2,2s0.896,2,2,2h4.033V48h-4.033c-1.104,0-2,0.896-2,2  s0.896,2,2,2h4.033v1.119h-4.033c-1.104,0-2,0.896-2,2s0.896,2,2,2h4.033v0.011c0,1.909,1.553,3.462,3.462,3.462h0.011v4.033  c0,1.104,0.896,2,2,2s2-0.896,2-2v-4.033H48v4.033c0,1.104,0.896,2,2,2s2-0.896,2-2v-4.033h1.119v4.033c0,1.104,0.896,2,2,2  s2-0.896,2-2v-4.033h0.011c1.909,0,3.462-1.553,3.462-3.462v-0.011h4.033c1.104,0,2-0.896,2-2s-0.896-2-2-2h-4.033V52h4.033  c1.104,0,2-0.896,2-2s-0.896-2-2-2h-4.033v-1.119h4.033c1.104,0,2-0.896,2-2s-0.896-2-2-2h-4.033V42.87z M56.592,56.592H43.408  V43.408h13.184V56.592z"/><path d="M98.125,50c0-5.932-4.044-11.302-10.852-15.467c1.935-7.985,0.833-14.486-3.244-18.563  c-2.729-2.729-6.676-4.171-11.413-4.171c-2.255,0-4.656,0.322-7.153,0.921C61.299,5.917,55.931,1.875,50,1.875  c-5.93,0-11.298,4.042-15.462,10.845c-2.498-0.599-4.899-0.921-7.154-0.921c-4.738,0-8.685,1.442-11.413,4.171  c-4.077,4.076-5.178,10.577-3.244,18.563C5.919,38.698,1.875,44.068,1.875,50c0,5.933,4.044,11.302,10.852,15.467  c-1.934,7.984-0.832,14.486,3.244,18.563c2.729,2.729,6.676,4.172,11.414,4.172c2.254,0,4.656-0.322,7.154-0.921  C38.702,94.084,44.07,98.125,50,98.125s11.298-4.041,15.462-10.845c2.497,0.599,4.899,0.921,7.153,0.921  c4.738,0,8.686-1.442,11.414-4.172c4.077-4.076,5.178-10.578,3.244-18.563C94.081,61.302,98.125,55.933,98.125,50z M72.616,15.799  c3.706,0,6.594,1.009,8.585,3c2.84,2.841,3.657,7.72,2.415,13.75c-3.495-1.699-7.514-3.127-11.94-4.225  c-1.097-4.424-2.524-8.441-4.223-11.935C69.258,16.015,70.993,15.799,72.616,15.799z M70.188,50c0,2.804-0.132,5.553-0.373,8.228  c-1.727,2.057-3.574,4.081-5.54,6.048c-1.97,1.97-4.007,3.813-6.074,5.541c-2.666,0.24-5.406,0.371-8.2,0.371  s-5.534-0.131-8.2-0.371c-2.068-1.728-4.104-3.571-6.075-5.541c-1.966-1.967-3.813-3.99-5.539-6.048  c-0.242-2.675-0.374-5.424-0.374-8.228s0.132-5.553,0.374-8.228c1.726-2.057,3.573-4.081,5.539-6.047  c1.97-1.97,4.007-3.813,6.075-5.542c2.667-0.24,5.406-0.371,8.2-0.371c2.794,0,5.533,0.131,8.199,0.371  c2.068,1.728,4.104,3.571,6.075,5.542c1.966,1.966,3.813,3.991,5.54,6.048C70.056,44.447,70.188,47.197,70.188,50z M67.103,32.897  c-0.61-0.611-1.23-1.2-1.851-1.788c1.033,0.18,2.047,0.38,3.044,0.595c0.214,0.992,0.413,2,0.593,3.028  C68.303,34.116,67.709,33.503,67.103,32.897z M59.799,26.294c-1.98-1.616-3.984-3.107-5.995-4.48  c3.31-1.864,6.566-3.335,9.669-4.354c1.455,2.891,2.724,6.227,3.754,9.898C64.84,26.911,62.361,26.551,59.799,26.294z   M52.575,25.846c-0.852-0.021-1.71-0.033-2.575-0.033s-1.723,0.012-2.576,0.033c0.858-0.604,1.717-1.188,2.576-1.745  C50.859,24.657,51.718,25.241,52.575,25.846z M40.201,26.294c-2.563,0.257-5.041,0.617-7.428,1.064  c1.031-3.671,2.299-7.007,3.754-9.898c3.103,1.019,6.359,2.49,9.668,4.354C44.186,23.187,42.182,24.678,40.201,26.294z   M34.748,31.109c-0.62,0.588-1.24,1.177-1.851,1.788c-0.606,0.606-1.2,1.218-1.785,1.834c0.18-1.027,0.378-2.036,0.592-3.027  C32.701,31.489,33.714,31.289,34.748,31.109z M26.294,40.205c-1.616,1.981-3.117,3.993-4.497,6.017  c-1.678-2.985-3.051-5.957-4.066-8.852c-0.099-0.283-0.185-0.56-0.276-0.84c2.892-1.456,6.229-2.726,9.903-3.757  C26.911,35.162,26.55,37.641,26.294,40.205z M25.847,47.385c-0.022,0.865-0.035,1.737-0.035,2.615c0,0.878,0.012,1.75,0.035,2.615  c-0.615-0.87-1.198-1.742-1.763-2.615C24.649,49.126,25.233,48.254,25.847,47.385z M26.294,59.796  c0.256,2.563,0.617,5.043,1.064,7.431c-3.673-1.031-7.012-2.301-9.903-3.757c0.091-0.279,0.177-0.557,0.276-0.84  c1.015-2.896,2.388-5.866,4.066-8.852C23.177,55.803,24.678,57.813,26.294,59.796z M31.112,65.269  c0.585,0.616,1.179,1.229,1.785,1.835c0.61,0.61,1.23,1.199,1.85,1.787c-1.033-0.18-2.046-0.38-3.042-0.595  C31.491,67.305,31.292,66.296,31.112,65.269z M40.2,73.706c1.981,1.616,3.985,3.107,5.995,4.481  c-3.309,1.863-6.565,3.335-9.667,4.354c-1.456-2.891-2.724-6.228-3.755-9.898C35.16,73.089,37.638,73.449,40.2,73.706z   M47.424,74.154c0.853,0.021,1.711,0.033,2.576,0.033s1.724-0.012,2.576-0.033c-0.857,0.604-1.717,1.188-2.576,1.745  C49.141,75.343,48.282,74.759,47.424,74.154z M59.8,73.706c2.563-0.257,5.04-0.617,7.427-1.063c-1.03,3.671-2.299,7.008-3.755,9.898  c-3.102-1.019-6.358-2.49-9.667-4.354C55.814,76.813,57.819,75.322,59.8,73.706z M65.253,68.891c0.619-0.588,1.239-1.177,1.85-1.787  c0.606-0.606,1.2-1.219,1.786-1.835c-0.18,1.027-0.379,2.035-0.593,3.027C67.299,68.511,66.286,68.711,65.253,68.891z   M73.706,59.795c1.615-1.981,3.116-3.992,4.497-6.017c1.678,2.985,3.051,5.956,4.065,8.852c0.1,0.283,0.186,0.561,0.276,0.84  c-2.892,1.456-6.229,2.726-9.902,3.757C73.09,64.838,73.45,62.359,73.706,59.795z M74.152,52.615  c0.022-0.865,0.035-1.737,0.035-2.615s-0.013-1.75-0.035-2.615c0.615,0.87,1.198,1.742,1.763,2.615  C75.351,50.873,74.768,51.745,74.152,52.615z M73.706,40.205c-0.256-2.564-0.616-5.043-1.063-7.432  c3.673,1.032,7.011,2.301,9.902,3.757c-0.092,0.28-0.177,0.557-0.276,0.84c-1.015,2.895-2.388,5.867-4.065,8.852  C76.822,44.198,75.321,42.187,73.706,40.205z M50,5.875c4.207,0,8.16,2.996,11.437,8.032C57.733,15.188,53.88,17.033,50,19.37  c-3.88-2.337-7.734-4.182-11.437-5.463C41.839,8.871,45.792,5.875,50,5.875z M18.799,18.799c1.991-1.99,4.879-3,8.585-3  c1.623,0,3.358,0.215,5.163,0.589c-1.698,3.494-3.125,7.511-4.223,11.935c-4.426,1.098-8.445,2.526-11.94,4.226  C15.141,26.519,15.958,21.64,18.799,18.799z M5.875,50c0-4.209,2.998-8.164,8.038-11.44c0.015,0.045,0.028,0.088,0.043,0.133  c1.297,3.7,3.132,7.507,5.417,11.308c-2.285,3.801-4.12,7.607-5.417,11.308c-0.016,0.045-0.028,0.088-0.043,0.133  C8.873,58.163,5.875,54.209,5.875,50z M27.384,84.201c-3.706,0-6.595-1.01-8.585-3c-2.84-2.841-3.658-7.72-2.415-13.75  c3.495,1.699,7.514,3.127,11.94,4.225c1.098,4.425,2.525,8.442,4.223,11.936C30.743,83.986,29.007,84.201,27.384,84.201z M50,94.125  c-4.207,0-8.16-2.995-11.437-8.031c3.703-1.281,7.557-3.126,11.437-5.463c3.88,2.336,7.733,4.182,11.437,5.463  C58.16,91.13,54.207,94.125,50,94.125z M81.201,81.201c-1.991,1.99-4.879,3-8.586,3c-1.623,0-3.358-0.215-5.162-0.589  c1.698-3.494,3.126-7.512,4.223-11.937c4.427-1.098,8.445-2.525,11.94-4.225C84.858,73.481,84.041,78.36,81.201,81.201z   M86.088,61.44c-0.016-0.045-0.028-0.088-0.044-0.133c-1.297-3.7-3.132-7.507-5.417-11.308c2.285-3.8,4.12-7.607,5.417-11.308  c0.016-0.045,0.028-0.088,0.044-0.133c5.039,3.277,8.037,7.231,8.037,11.44S91.127,58.163,86.088,61.44z"/><text x="0" y="115" fill="#000000" font-size="5px" font-weight="bold" font-family="'Helvetica Neue', Helvetica, Arial-Unicode, Arial, Sans-serif">Created by Srinivas Agra</text><text x="0" y="120" fill="#000000" font-size="5px" font-weight="bold" font-family="'Helvetica Neue', Helvetica, Arial-Unicode, Arial, Sans-serif">from the Noun Project</text></svg>